<svg width="0" height="0" class="hidden">
<symbol fill="none" xmlns="http://www.w3.org/2000/svg" viewBox="0 0 16 16" id="tel">
<g opacity="0.7">
<circle cx="8" cy="8" r="8" fill="#9873FF"/>
<path d="M11.56 9.50222C11.0133 9.50222 10.4844 9.41333 9.99111 9.25333C9.83556 9.2 9.66222 9.24 9.54222 9.36L8.84444 10.2356C7.58667 9.63556 6.40889 8.50222 5.78222 7.2L6.64889 6.46222C6.76889 6.33778 6.80444 6.16444 6.75556 6.00889C6.59111 5.51556 6.50667 4.98667 6.50667 4.44C6.50667 4.2 6.30667 4 6.06667 4H4.52889C4.28889 4 4 4.10667 4 4.44C4 8.56889 7.43556 12 11.56 12C11.8756 12 12 11.72 12 11.4756V9.94222C12 9.70222 11.8 9.50222 11.56 9.50222Z" fill="white"/>
</g>
</symbol>

<symbol fill="none" xmlns="http://www.w3.org/2000/svg" viewBox="0 0 16 16" id="email">
<path opacity="0.7" fill-rule="evenodd" clip-rule="evenodd" d="M8 16C12.4183 16 16 12.4183 16 8C16 3.58172 12.4183 0 8 0C3.58172 0 0 3.58172 0 8C0 12.4183 3.58172 16 8 16ZM4 5.75C4 5.3375 4.36 5 4.8 5H11.2C11.64 5 12 5.3375 12 5.75V10.25C12 10.6625 11.64 11 11.2 11H4.8C4.36 11 4 10.6625 4 10.25V5.75ZM8.424 8.1275L11.04 6.59375C11.14 6.53375 11.2 6.4325 11.2 6.32375C11.2 6.0725 10.908 5.9225 10.68 6.05375L8 7.625L5.32 6.05375C5.092 5.9225 4.8 6.0725 4.8 6.32375C4.8 6.4325 4.86 6.53375 4.96 6.59375L7.576 8.1275C7.836 8.28125 8.164 8.28125 8.424 8.1275Z" fill="#9873FF"/>
</symbol>

<symbol fill="none" xmlns="http://www.w3.org/2000/svg" viewBox="0 0 16 16" id="vk">
<g opacity="0.7">
<path d="M8 0C3.58187 0 0 3.58171 0 8C0 12.4183 3.58187 16 8 16C12.4181 16 16 12.4183 16 8C16 3.58171 12.4181 0 8 0ZM12.058 8.86523C12.4309 9.22942 12.8254 9.57217 13.1601 9.97402C13.3084 10.1518 13.4482 10.3356 13.5546 10.5423C13.7065 10.8371 13.5693 11.1604 13.3055 11.1779L11.6665 11.1776C11.2432 11.2126 10.9064 11.0419 10.6224 10.7525C10.3957 10.5219 10.1853 10.2755 9.96698 10.037C9.87777 9.93915 9.78382 9.847 9.67186 9.77449C9.44843 9.62914 9.2543 9.67366 9.1263 9.90707C8.99585 10.1446 8.96606 10.4078 8.95362 10.6721C8.93577 11.0586 8.81923 11.1596 8.43147 11.1777C7.60291 11.2165 6.81674 11.0908 6.08606 10.6731C5.44147 10.3047 4.94257 9.78463 4.50783 9.19587C3.66126 8.04812 3.01291 6.78842 2.43036 5.49254C2.29925 5.2007 2.39517 5.04454 2.71714 5.03849C3.25205 5.02817 3.78697 5.02948 4.32188 5.03799C4.53958 5.04143 4.68362 5.166 4.76726 5.37142C5.05633 6.08262 5.4107 6.75928 5.85477 7.38684C5.97312 7.55396 6.09391 7.72059 6.26594 7.83861C6.45582 7.9689 6.60051 7.92585 6.69005 7.71388C6.74734 7.57917 6.77205 7.43513 6.78449 7.29076C6.82705 6.79628 6.83212 6.30195 6.75847 5.80943C6.71263 5.50122 6.53929 5.30218 6.23206 5.24391C6.07558 5.21428 6.0985 5.15634 6.17461 5.06697C6.3067 4.91245 6.43045 4.81686 6.67777 4.81686L8.52951 4.81653C8.82136 4.87382 8.88683 5.00477 8.92644 5.29874L8.92808 7.35656C8.92464 7.47032 8.98521 7.80751 9.18948 7.88198C9.35317 7.936 9.4612 7.80473 9.55908 7.70111C10.0032 7.22987 10.3195 6.67368 10.6029 6.09801C10.7279 5.84413 10.8358 5.58142 10.9406 5.31822C11.0185 5.1236 11.1396 5.02785 11.3593 5.03112L13.1424 5.03325C13.195 5.03325 13.2483 5.03374 13.3004 5.04274C13.6009 5.09414 13.6832 5.22345 13.5903 5.5166C13.4439 5.97721 13.1596 6.36088 12.8817 6.74553C12.5838 7.15736 12.2661 7.55478 11.9711 7.96841C11.7001 8.34652 11.7215 8.53688 12.058 8.86523Z" fill="#9873FF"/>
</g>
</symbol>

<symbol fill="none" xmlns="http://www.w3.org/2000/svg" viewBox="0 0 16 16" id="fb">
<g opacity="0.7">
<path d="M7.99999 0C3.6 0 0 3.60643 0 8.04819C0 12.0643 2.928 15.3976 6.75199 16V10.3775H4.71999V8.04819H6.75199V6.27309C6.75199 4.25703 7.94399 3.14859 9.77599 3.14859C10.648 3.14859 11.56 3.30121 11.56 3.30121V5.28514H10.552C9.55999 5.28514 9.24799 5.90362 9.24799 6.53815V8.04819H11.472L11.112 10.3775H9.24799V16C11.1331 15.7011 12.8497 14.7354 14.0879 13.2772C15.3261 11.819 16.0043 9.96437 16 8.04819C16 3.60643 12.4 0 7.99999 0Z" fill="#9873FF"/>
</g>
</symbol>

<symbol fill="none" xmlns="http://www.w3.org/2000/svg" viewBox="0 0 29 14" id="nameArrow">
    <g opacity="0.7">
    <path d="M17.3711 11L16.6582 9.01758H13.9287L13.2305 11H12L14.6709 3.83203H15.9404L18.6113 11H17.3711ZM16.3506 8.01172L15.6816 6.06836C15.6328 5.93815 15.5645 5.73307 15.4766 5.45312C15.3919 5.17318 15.3333 4.9681 15.3008 4.83789C15.2129 5.23828 15.0843 5.67611 14.915 6.15137L14.2705 8.01172H16.3506ZM18.9629 8.80762V7.83105H21.4727V8.80762H18.9629ZM25.0322 8.13867L23.2646 11H21.9316L23.9434 7.87012C23.0319 7.55436 22.5762 6.8903 22.5762 5.87793C22.5762 5.22363 22.8024 4.72396 23.2549 4.37891C23.7074 4.03385 24.373 3.86133 25.252 3.86133H27.3955V11H26.2236V8.13867H25.0322ZM26.2236 4.83789H25.2959C24.8044 4.83789 24.4268 4.92578 24.1631 5.10156C23.9027 5.27409 23.7725 5.55729 23.7725 5.95117C23.7725 6.33529 23.8994 6.63477 24.1533 6.84961C24.4072 7.06445 24.8011 7.17188 25.335 7.17188H26.2236V4.83789Z" fill="#9873FF"/>
    <g clip-path="url(#clip0_224_2093)">
    <path d="M10 7L9.295 6.295L6.5 9.085L6.5 3H5.5L5.5 9.085L2.71 6.29L2 7L6 11L10 7Z" fill="#9873FF"/>
    </g>
    </g>
    <defs>
    <clipPath id="clip0_224_2093">
    <rect width="12" height="12" fill="white" transform="translate(0 1)"/>
    </clipPath>
    </defs>
</symbol>


<symbol fill="none" xmlns="http://www.w3.org/2000/svg" viewBox="0 0 12 12" id="arrow">
    <g opacity="0.7" clip-path="url(#clip0_224_2096)">
    <path d="M10 6L9.295 5.295L6.5 8.085L6.5 2H5.5L5.5 8.085L2.71 5.29L2 6L6 10L10 6Z" fill="#9873FF"/>
    </g>
    <defs>
    <clipPath id="clip0_224_2096">
    <rect width="12" height="12" fill="white"/>
    </clipPath>
    </defs>
</symbol>

<symbol fill="none" xmlns="http://www.w3.org/2000/svg" viewBox="0 0 23 16" id="addClients">
    <path d="M14.5 8C16.71 8 18.5 6.21 18.5 4C18.5 1.79 16.71 0 14.5 0C12.29 0 10.5 1.79 10.5 4C10.5 6.21 12.29 8 14.5 8ZM5.5 6V3H3.5V6H0.5V8H3.5V11H5.5V8H8.5V6H5.5ZM14.5 10C11.83 10 6.5 11.34 6.5 14V16H22.5V14C22.5 11.34 17.17 10 14.5 10Z" fill="#9873FF"/>
</symbol>



<symbol xmlns="http://www.w3.org/2000/svg" viewBox="0 0 14 14" id="plus">
<svg width="16" height="16" viewBox="0 0 16 16"  xmlns="http://www.w3.org/2000/svg">
<g clip-path="url(#clip0_124_2)" fill="#9873FF">
<path d="M7.99998 4.66683C7.63331 4.66683 7.33331 4.96683 7.33331 5.3335V7.3335H5.33331C4.96665 7.3335 4.66665 7.6335 4.66665 8.00016C4.66665 8.36683 4.96665 8.66683 5.33331 8.66683H7.33331V10.6668C7.33331 11.0335 7.63331 11.3335 7.99998 11.3335C8.36665 11.3335 8.66665 11.0335 8.66665 10.6668V8.66683H10.6666C11.0333 8.66683 11.3333 8.36683 11.3333 8.00016C11.3333 7.6335 11.0333 7.3335 10.6666 7.3335H8.66665V5.3335C8.66665 4.96683 8.36665 4.66683 7.99998 4.66683ZM7.99998 1.3335C4.31998 1.3335 1.33331 4.32016 1.33331 8.00016C1.33331 11.6802 4.31998 14.6668 7.99998 14.6668C11.68 14.6668 14.6666 11.6802 14.6666 8.00016C14.6666 4.32016 11.68 1.3335 7.99998 1.3335ZM7.99998 13.3335C5.05998 13.3335 2.66665 10.9402 2.66665 8.00016C2.66665 5.06016 5.05998 2.66683 7.99998 2.66683C10.94 2.66683 13.3333 5.06016 13.3333 8.00016C13.3333 10.9402 10.94 13.3335 7.99998 13.3335Z" />
</g>
<defs>
<clipPath id="clip0_124_2">
<rect width="16" height="16" />
</clipPath>
</defs>
</svg>

</symbol>

<symbol fill="none" xmlns="http://www.w3.org/2000/svg" viewBox="0 0 16 16" id="pen">
<g opacity="0.7" clip-path="url(#clip0_224_2140)">
<path d="M2 11.5V14H4.5L11.8733 6.62662L9.37333 4.12662L2 11.5ZM13.8067 4.69329C14.0667 4.43329 14.0667 4.01329 13.8067 3.75329L12.2467 2.19329C11.9867 1.93329 11.5667 1.93329 11.3067 2.19329L10.0867 3.41329L12.5867 5.91329L13.8067 4.69329Z" fill="#9873FF"/>
</g>
<defs>
<clipPath id="clip0_224_2140">
<rect width="16" height="16" fill="white"/>
</clipPath>
</defs>
</symbol>

<symbol fill="none" xmlns="http://www.w3.org/2000/svg" viewBox="0 0 16 16" id="del">
<g opacity="0.7" clip-path="url(#clip0_224_2145)">
<path d="M8 2C4.682 2 2 4.682 2 8C2 11.318 4.682 14 8 14C11.318 14 14 11.318 14 8C14 4.682 11.318 2 8 2ZM8 12.8C5.354 12.8 3.2 10.646 3.2 8C3.2 5.354 5.354 3.2 8 3.2C10.646 3.2 12.8 5.354 12.8 8C12.8 10.646 10.646 12.8 8 12.8ZM10.154 5L8 7.154L5.846 5L5 5.846L7.154 8L5 10.154L5.846 11L8 8.846L10.154 11L11 10.154L8.846 8L11 5.846L10.154 5Z" fill="#F06A4D"/>
</g>
<defs>
<clipPath id="clip0_224_2145">
<rect width="16" height="16" fill="white"/>
</clipPath>
</defs>
</symbol>

<symbol fill="none" xmlns="http://www.w3.org/2000/svg" viewBox="0 0 17 17" id="close">
<path fill-rule="evenodd" clip-rule="evenodd" d="M16.2332 1.73332L15.2665 0.766649L8.49985 7.53334L1.73318 0.766681L0.766515 1.73335L7.53318 8.50001L0.766542 15.2667L1.73321 16.2333L8.49985 9.46668L15.2665 16.2333L16.2332 15.2667L9.46651 8.50001L16.2332 1.73332Z" fill="#B0B0B0"/>
</symbol>

<symbol fill="none" xmlns="http://www.w3.org/2000/svg" viewBox="0 0 16 16" id="preload">
<g clip-path="url(#clip0_224_2787)">
<path d="M3.00008 8.04008C3.00008 10.8236 5.2566 13.0801 8.04008 13.0801C10.8236 13.0801 13.0801 10.8236 13.0801 8.04008C13.0801 5.2566 10.8236 3.00008 8.04008 3.00008C7.38922 3.00008 6.7672 3.12342 6.196 3.34812" stroke="#9873FF" stroke-width="2" stroke-miterlimit="10" stroke-linecap="round"/>
</g>
<defs>
<clipPath id="clip0_224_2787">
<rect width="16" height="16" fill="white"/>
</clipPath>
</defs>
</symbol>

<symbol viewBox="0 0 16 16" fill="none" xmlns="http://www.w3.org/2000/svg" >
<g clip-path="url(#clip0_121_1083)" id="inputButtonClose">
<path d="M8 2C4.682 2 2 4.682 2 8C2 11.318 4.682 14 8 14C11.318 14 14 11.318 14 8C14 4.682 11.318 2 8 2ZM8 12.8C5.354 12.8 3.2 10.646 3.2 8C3.2 5.354 5.354 3.2 8 3.2C10.646 3.2 12.8 5.354 12.8 8C12.8 10.646 10.646 12.8 8 12.8ZM10.154 5L8 7.154L5.846 5L5 5.846L7.154 8L5 10.154L5.846 11L8 8.846L10.154 11L11 10.154L8.846 8L11 5.846L10.154 5Z" fill="#B0B0B0" >
</g>
<defs>
<clipPath id="clip0_121_1083">
<rect width="16" height="16" fill="none" stroke="none"/>
</clipPath>
</defs>
</symbol>

<symbol viewBox="0 0 16 16" fill="none" xmlns="http://www.w3.org/2000/svg" id="tdActionsChangeActiveSvg">
<svg width="16" height="16" viewBox="0 0 16 16" fill="none" xmlns="http://www.w3.org/2000/svg">
<g clip-path="url(#clip0_224_2787)">
<path d="M3.00008 8.04008C3.00008 10.8236 5.2566 13.0801 8.04008 13.0801C10.8236 13.0801 13.0801 10.8236 13.0801 8.04008C13.0801 5.2566 10.8236 3.00008 8.04008 3.00008C7.38922 3.00008 6.7672 3.12342 6.196 3.34812" stroke="#9873FF" stroke-width="2" stroke-miterlimit="10" stroke-linecap="round"/>
</g>
<defs>
<clipPath id="clip0_224_2787">
<rect width="16" height="16" fill="white"/>
</clipPath>
</defs>
</svg>

</symbol>


<symbol viewBox="0 0 16 16" fill="none" xmlns="http://www.w3.org/2000/svg" id="tdActionsDeleteActiveSvg">
<g clip-path="url(#clip0_224_2792)">
<path d="M3.00008 8.04008C3.00008 10.8236 5.2566 13.0801 8.04008 13.0801C10.8236 13.0801 13.0801 10.8236 13.0801 8.04008C13.0801 5.2566 10.8236 3.00008 8.04008 3.00008C7.38922 3.00008 6.7672 3.12342 6.196 3.34812" stroke="#F06A4D" stroke-width="2" stroke-miterlimit="10" stroke-linecap="round"/>
</g>
<defs>
<clipPath id="clip0_224_2792">
<rect width="16" height="16" fill="white"/>
</clipPath>
</defs>
</symbol>



 </svg>
